<svg xmlns="http://www.w3.org/2000/svg" viewBox="0 0 358.13 197.27"><defs><style>.cls-1{isolation:isolate;}.cls-2{mix-blend-mode:darken;}.cls-3{fill:#080f0d;}.cls-4{fill:#fff;}.cls-5{fill:#07100c;}.cls-6{font-size:14px;fill:#ea5152;font-family:Lato-Bold, Lato;font-weight:700;}.cls-7{font-size:12px;fill:#1d1d1b;font-family:Lato-Regular, Lato;}.cls-8{letter-spacing:-0.02em;}.cls-9{letter-spacing:-0.01em;}</style></defs><g class="cls-1"><g id="Capa_1" data-name="Capa 1"><g class="cls-2"><rect class="cls-3" x="19.03" y="30.05" width="339.1" height="167.23" rx="20"/></g><rect class="cls-4" x="15.03" y="26.05" width="339.1" height="167.23" rx="20"/><rect class="cls-5" x="2.32" y="2.84" width="51.87" height="51.87" rx="15"/><rect class="cls-4" width="51.87" height="51.87" rx="15"/><circle class="cls-5" cx="25.94" cy="25.94" r="12.26"/><rect class="cls-4" x="24.3" y="19.26" width="3.26" height="8.4"/><circle class="cls-4" cx="25.94" cy="30.88" r="1.73"/><text class="cls-6" transform="translate(154.18 48.87)">Problema</text><text class="cls-7" transform="translate(41.35 77.08)">El problema del desarrollo personal es que se puede <tspan x="0" y="14.4">encont</tspan><tspan class="cls-8" x="36.38" y="14.4">r</tspan><tspan x="40.99" y="14.4">ar muchísima información y esto ocasiona que </tspan><tspan x="0" y="28.8">las personas no sepan como adent</tspan><tspan class="cls-8" x="176.78" y="28.8">r</tspan><tspan x="181.39" y="28.8">arse correctamente </tspan><tspan x="0" y="43.2">a este nu</tspan><tspan class="cls-9" x="46.32" y="43.2">ev</tspan><tspan x="58.44" y="43.2">o mundo. Reciben constantemente tanta </tspan><tspan x="0" y="57.6">información que finalmente no terminan de poner en </tspan><tspan x="0" y="72">p</tspan><tspan class="cls-8" x="6.62" y="72">r</tspan><tspan x="11.23" y="72">áctica todo lo que </tspan><tspan class="cls-9" x="105.36" y="72">v</tspan><tspan x="111.35" y="72">en y leen.</tspan></text></g></g></svg>