<svg xmlns="http://www.w3.org/2000/svg" viewBox="0 0 358.13 197.27"><defs><style>.cls-1{isolation:isolate;}.cls-2{mix-blend-mode:darken;}.cls-3{fill:#080f0d;}.cls-4{fill:#fff;}.cls-5{fill:#07100c;}.cls-6{font-size:12px;font-family:Lato-Regular, Lato;}.cls-11,.cls-6{fill:#1d1d1b;}.cls-7{letter-spacing:-0.01em;}.cls-8{letter-spacing:-0.02em;}.cls-9{letter-spacing:-0.07em;}.cls-10{fill:none;stroke:#fff;stroke-miterlimit:10;}.cls-11{font-size:14px;font-family:Lato-Bold, Lato;font-weight:700;}.cls-12{letter-spacing:-0.02em;}.cls-13{letter-spacing:0em;}</style></defs><g class="cls-1"><g id="Capa_1" data-name="Capa 1"><g class="cls-2"><rect class="cls-3" x="19.03" y="30.05" width="339.1" height="167.23" rx="20"/></g><rect class="cls-4" x="15.03" y="26.05" width="339.1" height="167.23" rx="20"/><rect class="cls-5" x="2.32" y="2.84" width="51.87" height="51.87" rx="15"/><rect class="cls-4" width="51.87" height="51.87" rx="15"/><text class="cls-6" transform="translate(41.35 84.05)">Cómo objeti<tspan class="cls-7" x="63.99" y="0">v</tspan><tspan x="69.98" y="0">o se busca que las personas puedan tener </tspan><tspan x="0" y="14.4">un lugar en el que puedan ir creando un desarrollo </tspan><tspan x="0" y="28.8">personal estructu</tspan><tspan class="cls-8" x="92" y="28.8">r</tspan><tspan x="96.61" y="28.8">ado, donde tengan un orden pa</tspan><tspan class="cls-8" x="256.8" y="28.8">r</tspan><tspan x="261.4" y="28.8">a ir </tspan><tspan x="0" y="43.2">creando sus nu</tspan><tspan class="cls-7" x="77.93" y="43.2">ev</tspan><tspan x="90.05" y="43.2">os hábitos y capacidades, todo en un </tspan><tspan x="0" y="57.6">mismo luga</tspan><tspan class="cls-9" x="58.93" y="57.6">r</tspan><tspan x="62.98" y="57.6">. </tspan></text><circle class="cls-5" cx="25.94" cy="25.94" r="12.26"/><rect class="cls-10" x="23.63" y="27.99" width="4.61" height="3.76" rx="1"/><line class="cls-10" x1="23.61" y1="29.99" x2="28.23" y2="29.99"/><path class="cls-10" d="M29.74,34.1a1.83,1.83,0,0,1-3.61,0" transform="translate(-2 -2)"/><path class="cls-10" d="M32.91,25.21a5,5,0,1,1-5-5A5,5,0,0,1,32.91,25.21Z" transform="translate(-2 -2)"/><polyline class="cls-10" points="25.99 27.64 25.99 24.34 24.21 22.95"/><line class="cls-10" x1="25.99" y1="24.34" x2="27.63" y2="22.97"/><text class="cls-11" transform="translate(157.17 49.34)">Objeti<tspan class="cls-12" x="39.63" y="0">v</tspan><tspan class="cls-13" x="46.87" y="0">o</tspan></text></g></g></svg>