<svg id="Capa_1" data-name="Capa 1" xmlns="http://www.w3.org/2000/svg" viewBox="0 0 46 42.99"><defs><style>.cls-1{fill:#fff;}</style></defs><path class="cls-1" d="M8,3C4.53,3,2,5.09,2,8s2.58,5,6,5,6-2.12,6-5.1C13.83,5,11.36,3,8,3ZM3,15a1,1,0,0,0-1,1V45a1,1,0,0,0,1,1H13a1,1,0,0,0,1-1V16a1,1,0,0,0-1-1Zm15,0a1,1,0,0,0-1,1V45a1,1,0,0,0,1,1h9a1,1,0,0,0,1-1V29.5A4.49,4.49,0,0,1,32.14,25a3.25,3.25,0,0,1,.72,0A4.49,4.49,0,0,1,37,29.5V45a1,1,0,0,0,1,1h9a1,1,0,0,0,1-1V28c0-6.47-3.47-13-11.21-13A13.52,13.52,0,0,0,29,17.49V16a1,1,0,0,0-1-1Z" transform="translate(-2 -3.01)"/></svg>